<mxfile host="app.diagrams.net" modified="2023-05-20T05:32:30.063Z" agent="Mozilla/5.0 (Windows NT 10.0; Win64; x64) AppleWebKit/537.36 (KHTML, like Gecko) Chrome/113.0.0.0 Safari/537.36" etag="Gz6cbzgCNKBYY6-vCwZK" version="21.3.2" type="github">
  <diagram id="R2lEEEUBdFMjLlhIrx00" name="Page-1">
    <mxGraphModel dx="2150" dy="902" grid="1" gridSize="10" guides="1" tooltips="1" connect="1" arrows="1" fold="1" page="1" pageScale="1" pageWidth="1654" pageHeight="1169" math="0" shadow="0" extFonts="Permanent Marker^https://fonts.googleapis.com/css?family=Permanent+Marker">
      <root>
        <mxCell id="0" />
        <mxCell id="1" parent="0" />
        <mxCell id="My1aNF-t4qYJKMOj081i-3" value="&lt;p align=&quot;center&quot; class=&quot;MsoNormal&quot;&gt;Website cửa hàng&lt;br/&gt;điện thoại&lt;/p&gt;" style="rounded=0;whiteSpace=wrap;html=1;" vertex="1" parent="1">
          <mxGeometry x="820" y="200" width="120" height="60" as="geometry" />
        </mxCell>
        <mxCell id="My1aNF-t4qYJKMOj081i-4" value="" style="endArrow=classic;html=1;rounded=0;" edge="1" parent="1">
          <mxGeometry width="50" height="50" relative="1" as="geometry">
            <mxPoint x="880" y="260" as="sourcePoint" />
            <mxPoint x="880" y="320" as="targetPoint" />
          </mxGeometry>
        </mxCell>
        <mxCell id="My1aNF-t4qYJKMOj081i-5" value="" style="endArrow=none;html=1;rounded=0;" edge="1" parent="1">
          <mxGeometry width="50" height="50" relative="1" as="geometry">
            <mxPoint x="320" y="320" as="sourcePoint" />
            <mxPoint x="1340" y="320" as="targetPoint" />
          </mxGeometry>
        </mxCell>
        <mxCell id="My1aNF-t4qYJKMOj081i-6" value="" style="endArrow=classic;html=1;rounded=0;" edge="1" parent="1">
          <mxGeometry width="50" height="50" relative="1" as="geometry">
            <mxPoint x="320" y="320" as="sourcePoint" />
            <mxPoint x="320" y="360" as="targetPoint" />
          </mxGeometry>
        </mxCell>
        <mxCell id="My1aNF-t4qYJKMOj081i-7" value="&lt;p align=&quot;center&quot; class=&quot;MsoNormal&quot;&gt;Giao dịch&lt;/p&gt;" style="rounded=0;whiteSpace=wrap;html=1;" vertex="1" parent="1">
          <mxGeometry x="270" y="360" width="120" height="60" as="geometry" />
        </mxCell>
        <mxCell id="My1aNF-t4qYJKMOj081i-8" value="" style="endArrow=none;html=1;rounded=0;" edge="1" parent="1">
          <mxGeometry width="50" height="50" relative="1" as="geometry">
            <mxPoint x="320" y="760" as="sourcePoint" />
            <mxPoint x="320" y="420" as="targetPoint" />
          </mxGeometry>
        </mxCell>
        <mxCell id="My1aNF-t4qYJKMOj081i-9" value="" style="endArrow=classic;html=1;rounded=0;" edge="1" parent="1">
          <mxGeometry width="50" height="50" relative="1" as="geometry">
            <mxPoint x="320" y="480" as="sourcePoint" />
            <mxPoint x="400" y="480" as="targetPoint" />
          </mxGeometry>
        </mxCell>
        <mxCell id="My1aNF-t4qYJKMOj081i-10" value="&lt;p align=&quot;center&quot; class=&quot;MsoNormal&quot;&gt;Đăng nhập&lt;/p&gt;" style="rounded=0;whiteSpace=wrap;html=1;" vertex="1" parent="1">
          <mxGeometry x="400" y="450" width="120" height="60" as="geometry" />
        </mxCell>
        <mxCell id="My1aNF-t4qYJKMOj081i-11" value="&lt;p align=&quot;center&quot; class=&quot;MsoNormal&quot;&gt;Đăng ký&lt;/p&gt;" style="rounded=0;whiteSpace=wrap;html=1;" vertex="1" parent="1">
          <mxGeometry x="400" y="520" width="120" height="60" as="geometry" />
        </mxCell>
        <mxCell id="My1aNF-t4qYJKMOj081i-12" value="" style="endArrow=classic;html=1;rounded=0;" edge="1" parent="1">
          <mxGeometry width="50" height="50" relative="1" as="geometry">
            <mxPoint x="320" y="550" as="sourcePoint" />
            <mxPoint x="400" y="550" as="targetPoint" />
          </mxGeometry>
        </mxCell>
        <mxCell id="My1aNF-t4qYJKMOj081i-14" value="" style="endArrow=classic;html=1;rounded=0;" edge="1" parent="1">
          <mxGeometry width="50" height="50" relative="1" as="geometry">
            <mxPoint x="320" y="640" as="sourcePoint" />
            <mxPoint x="400" y="640" as="targetPoint" />
          </mxGeometry>
        </mxCell>
        <mxCell id="My1aNF-t4qYJKMOj081i-27" value="" style="group" vertex="1" connectable="0" parent="1">
          <mxGeometry x="510" y="320" width="250" height="470" as="geometry" />
        </mxCell>
        <mxCell id="My1aNF-t4qYJKMOj081i-30" value="" style="endArrow=classic;html=1;rounded=0;" edge="1" parent="My1aNF-t4qYJKMOj081i-27">
          <mxGeometry width="50" height="50" relative="1" as="geometry">
            <mxPoint x="50" as="sourcePoint" />
            <mxPoint x="50" y="40" as="targetPoint" />
          </mxGeometry>
        </mxCell>
        <mxCell id="My1aNF-t4qYJKMOj081i-31" value="&lt;p align=&quot;center&quot; class=&quot;MsoNormal&quot;&gt;Tin tức&lt;/p&gt;" style="rounded=0;whiteSpace=wrap;html=1;" vertex="1" parent="My1aNF-t4qYJKMOj081i-27">
          <mxGeometry y="40" width="120" height="60" as="geometry" />
        </mxCell>
        <mxCell id="My1aNF-t4qYJKMOj081i-32" value="" style="endArrow=none;html=1;rounded=0;" edge="1" parent="My1aNF-t4qYJKMOj081i-27">
          <mxGeometry width="50" height="50" relative="1" as="geometry">
            <mxPoint x="50" y="140" as="sourcePoint" />
            <mxPoint x="50" y="100" as="targetPoint" />
          </mxGeometry>
        </mxCell>
        <mxCell id="My1aNF-t4qYJKMOj081i-33" value="" style="endArrow=classic;html=1;rounded=0;" edge="1" parent="My1aNF-t4qYJKMOj081i-27">
          <mxGeometry width="50" height="50" relative="1" as="geometry">
            <mxPoint x="50" y="140" as="sourcePoint" />
            <mxPoint x="130" y="140" as="targetPoint" />
          </mxGeometry>
        </mxCell>
        <mxCell id="My1aNF-t4qYJKMOj081i-34" value="&lt;p align=&quot;center&quot; class=&quot;MsoNormal&quot;&gt;Xem&amp;nbsp; tin tức&lt;/p&gt;" style="rounded=0;whiteSpace=wrap;html=1;" vertex="1" parent="My1aNF-t4qYJKMOj081i-27">
          <mxGeometry x="130" y="110" width="120" height="60" as="geometry" />
        </mxCell>
        <mxCell id="My1aNF-t4qYJKMOj081i-35" value="&lt;p align=&quot;center&quot; class=&quot;MsoNormal&quot;&gt;Bình luận&lt;/p&gt;" style="rounded=0;whiteSpace=wrap;html=1;" vertex="1" parent="My1aNF-t4qYJKMOj081i-27">
          <mxGeometry x="130" y="220" width="120" height="60" as="geometry" />
        </mxCell>
        <mxCell id="My1aNF-t4qYJKMOj081i-42" value="" style="endArrow=classic;html=1;rounded=0;" edge="1" parent="My1aNF-t4qYJKMOj081i-27">
          <mxGeometry width="50" height="50" relative="1" as="geometry">
            <mxPoint x="189.5" y="170" as="sourcePoint" />
            <mxPoint x="189.5" y="220" as="targetPoint" />
          </mxGeometry>
        </mxCell>
        <mxCell id="My1aNF-t4qYJKMOj081i-46" value="" style="endArrow=classic;html=1;rounded=0;" edge="1" parent="My1aNF-t4qYJKMOj081i-27">
          <mxGeometry width="50" height="50" relative="1" as="geometry">
            <mxPoint x="10" y="320" as="sourcePoint" />
            <mxPoint x="60" y="320" as="targetPoint" />
          </mxGeometry>
        </mxCell>
        <mxCell id="My1aNF-t4qYJKMOj081i-47" value="Bình luận" style="rounded=0;whiteSpace=wrap;html=1;" vertex="1" parent="My1aNF-t4qYJKMOj081i-27">
          <mxGeometry x="60" y="290" width="120" height="60" as="geometry" />
        </mxCell>
        <mxCell id="My1aNF-t4qYJKMOj081i-38" value="" style="group" vertex="1" connectable="0" parent="1">
          <mxGeometry x="270" y="320" width="250" height="470" as="geometry" />
        </mxCell>
        <mxCell id="My1aNF-t4qYJKMOj081i-15" value="&lt;p align=&quot;center&quot; class=&quot;MsoNormal&quot;&gt;Xem&amp;nbsp; sản phẩm&lt;/p&gt;" style="rounded=0;whiteSpace=wrap;html=1;" vertex="1" parent="My1aNF-t4qYJKMOj081i-38">
          <mxGeometry x="130" y="290" width="120" height="60" as="geometry" />
        </mxCell>
        <mxCell id="My1aNF-t4qYJKMOj081i-26" value="" style="group" vertex="1" connectable="0" parent="My1aNF-t4qYJKMOj081i-38">
          <mxGeometry width="250" height="470" as="geometry" />
        </mxCell>
        <mxCell id="My1aNF-t4qYJKMOj081i-16" value="&lt;p align=&quot;center&quot; class=&quot;MsoNormal&quot;&gt;Đặt hàng&lt;/p&gt;" style="rounded=0;whiteSpace=wrap;html=1;" vertex="1" parent="My1aNF-t4qYJKMOj081i-26">
          <mxGeometry x="130" y="410" width="120" height="60" as="geometry" />
        </mxCell>
        <mxCell id="My1aNF-t4qYJKMOj081i-17" value="" style="endArrow=classic;html=1;rounded=0;" edge="1" parent="My1aNF-t4qYJKMOj081i-26">
          <mxGeometry width="50" height="50" relative="1" as="geometry">
            <mxPoint x="50" y="440" as="sourcePoint" />
            <mxPoint x="130" y="440" as="targetPoint" />
          </mxGeometry>
        </mxCell>
        <mxCell id="My1aNF-t4qYJKMOj081i-18" value="" style="endArrow=classic;html=1;rounded=0;" edge="1" parent="My1aNF-t4qYJKMOj081i-26">
          <mxGeometry width="50" height="50" relative="1" as="geometry">
            <mxPoint x="50" as="sourcePoint" />
            <mxPoint x="50" y="40" as="targetPoint" />
          </mxGeometry>
        </mxCell>
        <mxCell id="My1aNF-t4qYJKMOj081i-19" value="&lt;p align=&quot;center&quot; class=&quot;MsoNormal&quot;&gt;Giao dịch&lt;/p&gt;" style="rounded=0;whiteSpace=wrap;html=1;" vertex="1" parent="My1aNF-t4qYJKMOj081i-26">
          <mxGeometry y="40" width="120" height="60" as="geometry" />
        </mxCell>
        <mxCell id="My1aNF-t4qYJKMOj081i-20" value="" style="endArrow=none;html=1;rounded=0;" edge="1" parent="My1aNF-t4qYJKMOj081i-26">
          <mxGeometry width="50" height="50" relative="1" as="geometry">
            <mxPoint x="50" y="440" as="sourcePoint" />
            <mxPoint x="50" y="100" as="targetPoint" />
          </mxGeometry>
        </mxCell>
        <mxCell id="My1aNF-t4qYJKMOj081i-21" value="" style="endArrow=classic;html=1;rounded=0;" edge="1" parent="My1aNF-t4qYJKMOj081i-26">
          <mxGeometry width="50" height="50" relative="1" as="geometry">
            <mxPoint x="50" y="160" as="sourcePoint" />
            <mxPoint x="130" y="160" as="targetPoint" />
          </mxGeometry>
        </mxCell>
        <mxCell id="My1aNF-t4qYJKMOj081i-22" value="&lt;p align=&quot;center&quot; class=&quot;MsoNormal&quot;&gt;Đăng nhập&lt;/p&gt;" style="rounded=0;whiteSpace=wrap;html=1;" vertex="1" parent="My1aNF-t4qYJKMOj081i-26">
          <mxGeometry x="130" y="130" width="120" height="60" as="geometry" />
        </mxCell>
        <mxCell id="My1aNF-t4qYJKMOj081i-23" value="&lt;p align=&quot;center&quot; class=&quot;MsoNormal&quot;&gt;Đăng ký&lt;/p&gt;" style="rounded=0;whiteSpace=wrap;html=1;" vertex="1" parent="My1aNF-t4qYJKMOj081i-26">
          <mxGeometry x="130" y="200" width="120" height="60" as="geometry" />
        </mxCell>
        <mxCell id="My1aNF-t4qYJKMOj081i-24" value="" style="endArrow=classic;html=1;rounded=0;" edge="1" parent="My1aNF-t4qYJKMOj081i-26">
          <mxGeometry width="50" height="50" relative="1" as="geometry">
            <mxPoint x="50" y="230" as="sourcePoint" />
            <mxPoint x="130" y="230" as="targetPoint" />
          </mxGeometry>
        </mxCell>
        <mxCell id="My1aNF-t4qYJKMOj081i-25" value="" style="endArrow=classic;html=1;rounded=0;" edge="1" parent="My1aNF-t4qYJKMOj081i-26">
          <mxGeometry width="50" height="50" relative="1" as="geometry">
            <mxPoint x="50" y="320" as="sourcePoint" />
            <mxPoint x="130" y="320" as="targetPoint" />
          </mxGeometry>
        </mxCell>
        <mxCell id="My1aNF-t4qYJKMOj081i-48" value="" style="group" vertex="1" connectable="0" parent="1">
          <mxGeometry x="760" y="320" width="250" height="470" as="geometry" />
        </mxCell>
        <mxCell id="My1aNF-t4qYJKMOj081i-50" value="" style="group" vertex="1" connectable="0" parent="My1aNF-t4qYJKMOj081i-48">
          <mxGeometry width="250" height="470" as="geometry" />
        </mxCell>
        <mxCell id="My1aNF-t4qYJKMOj081i-51" value="&lt;p align=&quot;center&quot; class=&quot;MsoNormal&quot;&gt;Quản lý sản phẩm&lt;/p&gt;" style="rounded=0;whiteSpace=wrap;html=1;" vertex="1" parent="My1aNF-t4qYJKMOj081i-50">
          <mxGeometry x="130" y="420" width="120" height="60" as="geometry" />
        </mxCell>
        <mxCell id="My1aNF-t4qYJKMOj081i-52" value="" style="endArrow=classic;html=1;rounded=0;" edge="1" parent="My1aNF-t4qYJKMOj081i-50">
          <mxGeometry width="50" height="50" relative="1" as="geometry">
            <mxPoint x="50" y="440" as="sourcePoint" />
            <mxPoint x="130" y="440" as="targetPoint" />
          </mxGeometry>
        </mxCell>
        <mxCell id="My1aNF-t4qYJKMOj081i-53" value="" style="endArrow=classic;html=1;rounded=0;" edge="1" parent="My1aNF-t4qYJKMOj081i-50">
          <mxGeometry width="50" height="50" relative="1" as="geometry">
            <mxPoint x="50" as="sourcePoint" />
            <mxPoint x="50" y="40" as="targetPoint" />
          </mxGeometry>
        </mxCell>
        <mxCell id="My1aNF-t4qYJKMOj081i-54" value="&lt;p align=&quot;center&quot; class=&quot;MsoNormal&quot;&gt;Quản trị&lt;/p&gt;" style="rounded=0;whiteSpace=wrap;html=1;" vertex="1" parent="My1aNF-t4qYJKMOj081i-50">
          <mxGeometry y="40" width="120" height="60" as="geometry" />
        </mxCell>
        <mxCell id="My1aNF-t4qYJKMOj081i-55" value="" style="endArrow=none;html=1;rounded=0;" edge="1" parent="My1aNF-t4qYJKMOj081i-50">
          <mxGeometry width="50" height="50" relative="1" as="geometry">
            <mxPoint x="50" y="720" as="sourcePoint" />
            <mxPoint x="50" y="100" as="targetPoint" />
          </mxGeometry>
        </mxCell>
        <mxCell id="My1aNF-t4qYJKMOj081i-56" value="" style="endArrow=classic;html=1;rounded=0;" edge="1" parent="My1aNF-t4qYJKMOj081i-50">
          <mxGeometry width="50" height="50" relative="1" as="geometry">
            <mxPoint x="50" y="160" as="sourcePoint" />
            <mxPoint x="130" y="160" as="targetPoint" />
          </mxGeometry>
        </mxCell>
        <mxCell id="My1aNF-t4qYJKMOj081i-57" value="&lt;p align=&quot;center&quot; class=&quot;MsoNormal&quot;&gt;Quản lý tài khoản&lt;/p&gt;" style="rounded=0;whiteSpace=wrap;html=1;" vertex="1" parent="My1aNF-t4qYJKMOj081i-50">
          <mxGeometry x="130" y="130" width="120" height="60" as="geometry" />
        </mxCell>
        <mxCell id="My1aNF-t4qYJKMOj081i-58" value="&lt;p align=&quot;center&quot; class=&quot;MsoNormal&quot;&gt;Quản lý tin tức&lt;/p&gt;" style="rounded=0;whiteSpace=wrap;html=1;" vertex="1" parent="My1aNF-t4qYJKMOj081i-50">
          <mxGeometry x="130" y="200" width="120" height="60" as="geometry" />
        </mxCell>
        <mxCell id="My1aNF-t4qYJKMOj081i-59" value="" style="endArrow=classic;html=1;rounded=0;" edge="1" parent="My1aNF-t4qYJKMOj081i-50">
          <mxGeometry width="50" height="50" relative="1" as="geometry">
            <mxPoint x="50" y="230" as="sourcePoint" />
            <mxPoint x="130" y="230" as="targetPoint" />
          </mxGeometry>
        </mxCell>
        <mxCell id="My1aNF-t4qYJKMOj081i-60" value="" style="endArrow=classic;html=1;rounded=0;" edge="1" parent="My1aNF-t4qYJKMOj081i-50">
          <mxGeometry width="50" height="50" relative="1" as="geometry">
            <mxPoint x="50" y="299.41" as="sourcePoint" />
            <mxPoint x="130" y="299.41" as="targetPoint" />
          </mxGeometry>
        </mxCell>
        <mxCell id="My1aNF-t4qYJKMOj081i-92" value="&lt;p align=&quot;center&quot; class=&quot;MsoNormal&quot;&gt;Quản lý danh mục&lt;/p&gt;" style="rounded=0;whiteSpace=wrap;html=1;" vertex="1" parent="My1aNF-t4qYJKMOj081i-50">
          <mxGeometry x="130" y="340" width="120" height="60" as="geometry" />
        </mxCell>
        <mxCell id="My1aNF-t4qYJKMOj081i-49" value="&lt;p align=&quot;center&quot; class=&quot;MsoNormal&quot;&gt;Quản lý đơn hàng&lt;/p&gt;" style="rounded=0;whiteSpace=wrap;html=1;" vertex="1" parent="My1aNF-t4qYJKMOj081i-50">
          <mxGeometry x="130" y="270" width="120" height="60" as="geometry" />
        </mxCell>
        <mxCell id="My1aNF-t4qYJKMOj081i-94" value="" style="endArrow=classic;html=1;rounded=0;" edge="1" parent="My1aNF-t4qYJKMOj081i-50">
          <mxGeometry width="50" height="50" relative="1" as="geometry">
            <mxPoint x="50" y="369.40999999999997" as="sourcePoint" />
            <mxPoint x="130" y="369.40999999999997" as="targetPoint" />
          </mxGeometry>
        </mxCell>
        <mxCell id="My1aNF-t4qYJKMOj081i-63" value="" style="endArrow=classic;html=1;rounded=0;" edge="1" parent="1">
          <mxGeometry width="50" height="50" relative="1" as="geometry">
            <mxPoint x="810" y="840" as="sourcePoint" />
            <mxPoint x="890" y="840" as="targetPoint" />
          </mxGeometry>
        </mxCell>
        <mxCell id="My1aNF-t4qYJKMOj081i-64" value="&lt;p align=&quot;center&quot; class=&quot;MsoNormal&quot;&gt;Quản lý bình luận&lt;/p&gt;" style="rounded=0;whiteSpace=wrap;html=1;" vertex="1" parent="1">
          <mxGeometry x="890" y="810" width="120" height="60" as="geometry" />
        </mxCell>
        <mxCell id="My1aNF-t4qYJKMOj081i-65" value="" style="endArrow=classic;html=1;rounded=0;" edge="1" parent="1">
          <mxGeometry width="50" height="50" relative="1" as="geometry">
            <mxPoint x="810" y="950" as="sourcePoint" />
            <mxPoint x="890" y="950" as="targetPoint" />
          </mxGeometry>
        </mxCell>
        <mxCell id="My1aNF-t4qYJKMOj081i-66" value="&lt;p align=&quot;center&quot; class=&quot;MsoNormal&quot;&gt;Quản lý thương hiệu&lt;/p&gt;" style="rounded=0;whiteSpace=wrap;html=1;" vertex="1" parent="1">
          <mxGeometry x="890" y="920" width="120" height="60" as="geometry" />
        </mxCell>
        <mxCell id="My1aNF-t4qYJKMOj081i-69" value="" style="endArrow=classic;html=1;rounded=0;" edge="1" parent="1">
          <mxGeometry width="50" height="50" relative="1" as="geometry">
            <mxPoint x="810" y="1040" as="sourcePoint" />
            <mxPoint x="890" y="1040" as="targetPoint" />
          </mxGeometry>
        </mxCell>
        <mxCell id="My1aNF-t4qYJKMOj081i-70" value="&lt;p align=&quot;center&quot; class=&quot;MsoNormal&quot;&gt;Quản lý nhà sản xuất&lt;/p&gt;" style="rounded=0;whiteSpace=wrap;html=1;" vertex="1" parent="1">
          <mxGeometry x="890" y="1010" width="120" height="60" as="geometry" />
        </mxCell>
        <mxCell id="My1aNF-t4qYJKMOj081i-71" value="" style="group" vertex="1" connectable="0" parent="1">
          <mxGeometry x="1030" y="320" width="250" height="420" as="geometry" />
        </mxCell>
        <mxCell id="My1aNF-t4qYJKMOj081i-82" value="" style="group" vertex="1" connectable="0" parent="My1aNF-t4qYJKMOj081i-71">
          <mxGeometry width="250" height="236.8127659574468" as="geometry" />
        </mxCell>
        <mxCell id="My1aNF-t4qYJKMOj081i-72" value="" style="endArrow=classic;html=1;rounded=0;" edge="1" parent="My1aNF-t4qYJKMOj081i-82">
          <mxGeometry width="50" height="50" relative="1" as="geometry">
            <mxPoint x="50" as="sourcePoint" />
            <mxPoint x="50" y="35.744680851063826" as="targetPoint" />
          </mxGeometry>
        </mxCell>
        <mxCell id="My1aNF-t4qYJKMOj081i-73" value="&lt;p align=&quot;center&quot; class=&quot;MsoNormal&quot;&gt;Tìm kiếm&lt;/p&gt;" style="rounded=0;whiteSpace=wrap;html=1;" vertex="1" parent="My1aNF-t4qYJKMOj081i-82">
          <mxGeometry y="35.744680851063826" width="120" height="53.61702127659574" as="geometry" />
        </mxCell>
        <mxCell id="My1aNF-t4qYJKMOj081i-74" value="" style="endArrow=none;html=1;rounded=0;" edge="1" parent="My1aNF-t4qYJKMOj081i-82">
          <mxGeometry width="50" height="50" relative="1" as="geometry">
            <mxPoint x="50" y="210" as="sourcePoint" />
            <mxPoint x="50" y="89.36170212765957" as="targetPoint" />
          </mxGeometry>
        </mxCell>
        <mxCell id="My1aNF-t4qYJKMOj081i-75" value="" style="endArrow=classic;html=1;rounded=0;" edge="1" parent="My1aNF-t4qYJKMOj081i-82">
          <mxGeometry width="50" height="50" relative="1" as="geometry">
            <mxPoint x="50" y="125.1063829787234" as="sourcePoint" />
            <mxPoint x="130" y="125.1063829787234" as="targetPoint" />
          </mxGeometry>
        </mxCell>
        <mxCell id="My1aNF-t4qYJKMOj081i-76" value="&lt;p align=&quot;center&quot; class=&quot;MsoNormal&quot;&gt;Tìm kiếm theo tên&lt;/p&gt;" style="rounded=0;whiteSpace=wrap;html=1;" vertex="1" parent="My1aNF-t4qYJKMOj081i-82">
          <mxGeometry x="130" y="98.29787234042553" width="120" height="53.61702127659574" as="geometry" />
        </mxCell>
        <mxCell id="My1aNF-t4qYJKMOj081i-77" value="&lt;p align=&quot;center&quot; class=&quot;MsoNormal&quot;&gt;Tìm kiếm theo giá&lt;/p&gt;" style="rounded=0;whiteSpace=wrap;html=1;" vertex="1" parent="My1aNF-t4qYJKMOj081i-82">
          <mxGeometry x="130" y="183.19574468085105" width="120" height="53.61702127659574" as="geometry" />
        </mxCell>
        <mxCell id="My1aNF-t4qYJKMOj081i-81" value="" style="endArrow=classic;html=1;rounded=0;" edge="1" parent="My1aNF-t4qYJKMOj081i-82">
          <mxGeometry width="50" height="50" relative="1" as="geometry">
            <mxPoint x="50" y="209.40999999999997" as="sourcePoint" />
            <mxPoint x="130" y="209.40999999999997" as="targetPoint" />
          </mxGeometry>
        </mxCell>
        <mxCell id="My1aNF-t4qYJKMOj081i-84" value="&lt;p align=&quot;center&quot; class=&quot;MsoNormal&quot;&gt;Liên hệ&lt;/p&gt;" style="rounded=0;whiteSpace=wrap;html=1;" vertex="1" parent="1">
          <mxGeometry x="1290" y="360.0046808510638" width="120" height="53.61702127659574" as="geometry" />
        </mxCell>
        <mxCell id="My1aNF-t4qYJKMOj081i-86" value="" style="endArrow=classic;html=1;rounded=0;" edge="1" parent="1">
          <mxGeometry width="50" height="50" relative="1" as="geometry">
            <mxPoint x="1340" y="320" as="sourcePoint" />
            <mxPoint x="1340" y="360" as="targetPoint" />
          </mxGeometry>
        </mxCell>
      </root>
    </mxGraphModel>
  </diagram>
</mxfile>
